<svg version="1.1" id="Layer_1" xmlns="http://www.w3.org/2000/svg" xmlns:xlink="http://www.w3.org/1999/xlink" x="0px" y="0px"
	 viewBox="0 0 349 141" style="enable-background:new 0 0 349 141;" xml:space="preserve">
<style type="text/css">
	.st0{fill-rule:evenodd;clip-rule:evenodd; fill:white;}
</style>
<path class="st0" d="M217.5,16L204,0h106.5c21,0,38,17,38,38s-17,38-38,38h-42.7l-13.4-16h56.1c12.1,0,22-9.8,22-22s-9.9-22-22-22
	H217.5z M135.8,22.4c-3.5-4.1-8.5-6.4-13.9-6.4H70.5C40.4,16,16,40.4,16,70.5c0,30.1,24.4,54.5,54.5,54.5h51.8
	c4.8,0,9.4-1.9,12.8-5.2l16.4-16l10.3,12.3l-15.6,15.2c-6.4,6.2-15,9.7-23.9,9.7H70.5C31.6,141,0,109.4,0,70.5C0,31.6,31.6,0,70.5,0
	h51.4c10,0,19.5,4.4,26,12l91.8,107.7c2.9,3.3,7,5.3,11.4,5.3h93.4v16h-93.4c-9.1,0-17.7-4-23.6-10.9L135.8,22.4"/>
</svg>

